<?xml version="1.0" encoding="UTF-8" standalone="no"?>
<!DOCTYPE svg PUBLIC "-//W3C//DTD SVG 1.1//EN"
 "http://www.w3.org/Graphics/SVG/1.1/DTD/svg11.dtd">
<!-- Generated by graphviz version 2.40.1 (20161225.0304)
 -->
<!-- Title: %3 Pages: 1 -->
<svg width="741pt" height="520pt"
 viewBox="0.00 0.00 741.00 520.00" xmlns="http://www.w3.org/2000/svg" xmlns:xlink="http://www.w3.org/1999/xlink">
<g id="graph0" class="graph" transform="scale(1 1) rotate(0) translate(4 516)">
<title>%3</title>
<polygon fill="#ffffff" stroke="transparent" points="-4,4 -4,-516 737,-516 737,4 -4,4"/>
<g id="clust1" class="cluster">
<title>cluster_yam</title>
<polygon fill="none" stroke="#000000" points="8,-91 8,-504 601,-504 601,-91 8,-91"/>
<text text-anchor="middle" x="304.5" y="-488.8" font-family="Times,serif" font-size="14.00" fill="#000000">Yam</text>
</g>
<g id="clust2" class="cluster">
<title>cluster_appl</title>
<polygon fill="none" stroke="#000000" points="16,-99 16,-390 593,-390 593,-99 16,-99"/>
<text text-anchor="middle" x="304.5" y="-374.8" font-family="Times,serif" font-size="14.00" fill="#000000">Appl</text>
</g>
<g id="clust3" class="cluster">
<title>cluster_link</title>
<polygon fill="none" stroke="#000000" points="422,-398 422,-473 534,-473 534,-398 422,-398"/>
<text text-anchor="middle" x="478" y="-457.8" font-family="Times,serif" font-size="14.00" fill="#000000">Link</text>
</g>
<g id="clust4" class="cluster">
<title>cluster_link_binding</title>
<polygon fill="none" stroke="#000000" points="609,-315 609,-390 725,-390 725,-315 609,-315"/>
<text text-anchor="middle" x="667" y="-374.8" font-family="Times,serif" font-size="14.00" fill="#000000">Link Binding</text>
</g>
<g id="clust5" class="cluster">
<title>cluster_compiler</title>
<polygon fill="none" stroke="#000000" points="141,-8 141,-83 373,-83 373,-8 141,-8"/>
<text text-anchor="middle" x="257" y="-67.8" font-family="Times,serif" font-size="14.00" fill="#000000">Compiler</text>
</g>
<g id="clust6" class="cluster">
<title>cluster_store</title>
<polygon fill="none" stroke="#000000" points="381,-8 381,-83 501,-83 501,-8 381,-8"/>
<text text-anchor="middle" x="441" y="-67.8" font-family="Times,serif" font-size="14.00" fill="#000000">Store</text>
</g>
<!-- appl -->
<g id="node1" class="node">
<title>appl</title>
<ellipse fill="none" stroke="#000000" cx="361" cy="-341" rx="27" ry="18"/>
<text text-anchor="middle" x="361" y="-337.3" font-family="Times,serif" font-size="14.00" fill="#000000">appl</text>
</g>
<!-- read_coils_handler -->
<g id="node2" class="node">
<title>read_coils_handler</title>
<ellipse fill="none" stroke="#000000" cx="101" cy="-269" rx="77.1866" ry="18"/>
<text text-anchor="middle" x="101" y="-265.3" font-family="Times,serif" font-size="14.00" fill="#000000">read_coils_handler</text>
</g>
<!-- appl&#45;&gt;read_coils_handler -->
<g id="edge1" class="edge">
<title>appl&#45;&gt;read_coils_handler</title>
<path fill="none" stroke="#000000" d="M335.5967,-333.9652C295.3359,-322.8161 215.7834,-300.7862 160.5462,-285.4897"/>
<polygon fill="#000000" stroke="#000000" points="161.4448,-282.1069 150.8734,-282.8111 159.5766,-288.853 161.4448,-282.1069"/>
</g>
<!-- read_holding_regs_handler -->
<g id="node3" class="node">
<title>read_holding_regs_handler</title>
<ellipse fill="none" stroke="#000000" cx="303" cy="-269" rx="106.6812" ry="18"/>
<text text-anchor="middle" x="303" y="-265.3" font-family="Times,serif" font-size="14.00" fill="#000000">read_holding_regs_handler</text>
</g>
<!-- appl&#45;&gt;read_holding_regs_handler -->
<g id="edge2" class="edge">
<title>appl&#45;&gt;read_holding_regs_handler</title>
<path fill="none" stroke="#000000" d="M348.1279,-325.0209C341.036,-316.2171 332.0573,-305.0712 323.9797,-295.0437"/>
<polygon fill="#000000" stroke="#000000" points="326.4665,-292.5516 317.4676,-286.9597 321.0153,-296.943 326.4665,-292.5516"/>
</g>
<!-- write_regs_handler -->
<g id="node4" class="node">
<title>write_regs_handler</title>
<ellipse fill="none" stroke="#000000" cx="506" cy="-269" rx="78.7863" ry="18"/>
<text text-anchor="middle" x="506" y="-265.3" font-family="Times,serif" font-size="14.00" fill="#000000">write_regs_handler</text>
</g>
<!-- appl&#45;&gt;write_regs_handler -->
<g id="edge3" class="edge">
<title>appl&#45;&gt;write_regs_handler</title>
<path fill="none" stroke="#000000" d="M382.708,-330.2209C404.0508,-319.623 437.1954,-303.165 463.746,-289.9813"/>
<polygon fill="#000000" stroke="#000000" points="465.4321,-293.0519 472.8321,-285.4696 462.3189,-286.7822 465.4321,-293.0519"/>
</g>
<!-- register -->
<g id="node5" class="node">
<title>register</title>
<ellipse fill="none" stroke="#000000" cx="303" cy="-197" rx="37.0935" ry="18"/>
<text text-anchor="middle" x="303" y="-193.3" font-family="Times,serif" font-size="14.00" fill="#000000">register</text>
</g>
<!-- read_coils_handler&#45;&gt;register -->
<g id="edge4" class="edge">
<title>read_coils_handler&#45;&gt;register</title>
<path fill="none" stroke="#000000" d="M143.3458,-253.9064C178.6197,-241.3336 228.5005,-223.5543 263.0816,-211.2283"/>
<polygon fill="#000000" stroke="#000000" points="264.602,-214.4022 272.8464,-207.7478 262.2517,-207.8085 264.602,-214.4022"/>
</g>
<!-- read_holding_regs_handler&#45;&gt;register -->
<g id="edge5" class="edge">
<title>read_holding_regs_handler&#45;&gt;register</title>
<path fill="none" stroke="#000000" d="M303,-250.8314C303,-243.131 303,-233.9743 303,-225.4166"/>
<polygon fill="#000000" stroke="#000000" points="306.5001,-225.4132 303,-215.4133 299.5001,-225.4133 306.5001,-225.4132"/>
</g>
<!-- write_regs_handler&#45;&gt;register -->
<g id="edge6" class="edge">
<title>write_regs_handler&#45;&gt;register</title>
<path fill="none" stroke="#000000" d="M462.9489,-253.7307C427.463,-241.1445 377.5182,-223.4301 342.92,-211.1588"/>
<polygon fill="#000000" stroke="#000000" points="343.7462,-207.7383 333.1514,-207.6941 341.4062,-214.3356 343.7462,-207.7383"/>
</g>
<!-- regval -->
<g id="node6" class="node">
<title>regval</title>
<ellipse fill="none" stroke="#000000" cx="333" cy="-125" rx="32.4942" ry="18"/>
<text text-anchor="middle" x="333" y="-121.3" font-family="Times,serif" font-size="14.00" fill="#000000">regval</text>
</g>
<!-- register&#45;&gt;regval -->
<g id="edge7" class="edge">
<title>register&#45;&gt;regval</title>
<path fill="none" stroke="#000000" d="M310.4157,-179.2022C313.8307,-171.0064 317.9573,-161.1024 321.7439,-152.0145"/>
<polygon fill="#000000" stroke="#000000" points="325.0541,-153.17 325.6696,-142.593 318.5926,-150.4776 325.0541,-153.17"/>
</g>
<!-- __register_start -->
<g id="node9" class="node">
<title>__register_start</title>
<text text-anchor="middle" x="200" y="-30.3" font-family="Times,serif" font-size="14.00" fill="#000000">__register_start</text>
</g>
<!-- register&#45;&gt;__register_start -->
<g id="edge8" class="edge">
<title>register&#45;&gt;__register_start</title>
<path fill="none" stroke="#000000" d="M291.9772,-179.5561C274.046,-151.1796 238.4294,-94.8154 217.1627,-61.1604"/>
<polygon fill="#000000" stroke="#000000" points="219.8723,-58.8963 211.5716,-52.3123 213.9547,-62.6356 219.8723,-58.8963"/>
</g>
<!-- __register_end -->
<g id="node10" class="node">
<title>__register_end</title>
<text text-anchor="middle" x="317" y="-30.3" font-family="Times,serif" font-size="14.00" fill="#000000">__register_end</text>
</g>
<!-- register&#45;&gt;__register_end -->
<g id="edge9" class="edge">
<title>register&#45;&gt;__register_end</title>
<path fill="none" stroke="#000000" d="M304.5517,-178.9334C306.98,-150.6612 311.6975,-95.7364 314.5764,-62.2173"/>
<polygon fill="#000000" stroke="#000000" points="318.0726,-62.4104 315.4413,-52.1476 311.0983,-61.8113 318.0726,-62.4104"/>
</g>
<!-- regstore_cb -->
<g id="node11" class="node">
<title>regstore_cb</title>
<ellipse fill="none" stroke="#000000" cx="441" cy="-34" rx="51.9908" ry="18"/>
<text text-anchor="middle" x="441" y="-30.3" font-family="Times,serif" font-size="14.00" fill="#000000">regstore_cb</text>
</g>
<!-- register&#45;&gt;regstore_cb -->
<g id="edge10" class="edge">
<title>register&#45;&gt;regstore_cb</title>
<path fill="none" stroke="#000000" stroke-dasharray="5,2" d="M317.2487,-180.1701C341.4998,-151.5256 390.9346,-93.1352 419.4375,-59.4687"/>
<polygon fill="#000000" stroke="#000000" points="422.4147,-61.3689 426.205,-51.4753 417.0722,-56.8458 422.4147,-61.3689"/>
</g>
<!-- regval&#45;&gt;__register_start -->
<!-- regval&#45;&gt;__register_end -->
<!-- regval&#45;&gt;regstore_cb -->
<!-- serial_link -->
<g id="node7" class="node">
<title>serial_link</title>
<ellipse fill="none" stroke="#000000" cx="478" cy="-424" rx="48.1917" ry="18"/>
<text text-anchor="middle" x="478" y="-420.3" font-family="Times,serif" font-size="14.00" fill="#000000">serial_link</text>
</g>
<!-- serial_link&#45;&gt;appl -->
<g id="edge11" class="edge">
<title>serial_link&#45;&gt;appl</title>
<path fill="none" stroke="#000000" d="M455.4412,-407.9968C436.1509,-394.3122 408.3477,-374.5886 387.9018,-360.0842"/>
<polygon fill="#000000" stroke="#000000" points="389.8173,-357.1518 379.636,-354.2204 385.767,-362.8611 389.8173,-357.1518"/>
</g>
<!-- send_frame_cb -->
<g id="node8" class="node">
<title>send_frame_cb</title>
<text text-anchor="middle" x="667" y="-337.3" font-family="Times,serif" font-size="14.00" fill="#000000">send_frame_cb</text>
</g>
<!-- serial_link&#45;&gt;send_frame_cb -->
<g id="edge12" class="edge">
<title>serial_link&#45;&gt;send_frame_cb</title>
<path fill="none" stroke="#000000" stroke-dasharray="5,2" d="M509.2095,-410.2942C538.3437,-397.4999 582.3314,-378.1825 616.4684,-363.1911"/>
<polygon fill="#000000" stroke="#000000" points="618.0663,-366.3121 625.815,-359.0865 615.2517,-359.9029 618.0663,-366.3121"/>
</g>
</g>
</svg>
