<?xml version="1.0" encoding="UTF-8" standalone="no"?>
<!DOCTYPE svg PUBLIC "-//W3C//DTD SVG 1.1//EN"
 "http://www.w3.org/Graphics/SVG/1.1/DTD/svg11.dtd">
<!-- Generated by graphviz version 2.40.1 (20161225.0304)
 -->
<!-- Title: %3 Pages: 1 -->
<svg width="569pt" height="155pt"
 viewBox="0.00 0.00 569.00 155.00" xmlns="http://www.w3.org/2000/svg" xmlns:xlink="http://www.w3.org/1999/xlink">
<g id="graph0" class="graph" transform="scale(1 1) rotate(0) translate(4 151)">
<title>%3</title>
<polygon fill="#ffffff" stroke="transparent" points="-4,4 -4,-151 565,-151 565,4 -4,4"/>
<g id="clust1" class="cluster">
<title>cluster_link_bindings</title>
<polygon fill="none" stroke="#000000" points="8,-64 8,-139 283,-139 283,-64 8,-64"/>
<text text-anchor="middle" x="145.5" y="-123.8" font-family="Times,serif" font-size="14.00" fill="#000000">Link Bindings</text>
</g>
<g id="clust2" class="cluster">
<title>cluster_register_impl</title>
<polygon fill="none" stroke="#000000" points="291,-64 291,-139 553,-139 553,-64 291,-64"/>
<text text-anchor="middle" x="422" y="-123.8" font-family="Times,serif" font-size="14.00" fill="#000000">Register Implementation</text>
</g>
<!-- tcp_server -->
<g id="node1" class="node">
<title>tcp_server</title>
<ellipse fill="#c1b2ff" stroke="#c1b2ff" cx="228" cy="-90" rx="47.3916" ry="18"/>
<text text-anchor="middle" x="228" y="-86.3" font-family="Times,serif" font-size="14.00" fill="#000000">tcp_server</text>
</g>
<!-- Yam -->
<g id="node5" class="node">
<title>Yam</title>
<ellipse fill="none" stroke="#000000" cx="292" cy="-18" rx="28.6953" ry="18"/>
<text text-anchor="middle" x="292" y="-14.3" font-family="Times,serif" font-size="14.00" fill="#000000">Yam</text>
</g>
<!-- tcp_server&#45;&gt;Yam -->
<g id="edge1" class="edge">
<title>tcp_server&#45;&gt;Yam</title>
<path fill="none" stroke="#000000" d="M243.1671,-72.937C251.5326,-63.5259 262.0436,-51.701 271.169,-41.4349"/>
<polygon fill="#000000" stroke="#000000" points="273.7909,-43.7534 277.8187,-33.954 268.5591,-39.1028 273.7909,-43.7534"/>
</g>
<!-- rs485_transmitter -->
<g id="node2" class="node">
<title>rs485_transmitter</title>
<ellipse fill="#c1b2ff" stroke="#c1b2ff" cx="89" cy="-90" rx="73.387" ry="18"/>
<text text-anchor="middle" x="89" y="-86.3" font-family="Times,serif" font-size="14.00" fill="#000000">rs485_transmitter</text>
</g>
<!-- rs485_transmitter&#45;&gt;Yam -->
<g id="edge2" class="edge">
<title>rs485_transmitter&#45;&gt;Yam</title>
<path fill="none" stroke="#000000" d="M131.0617,-75.0816C168.3734,-61.8478 222.2307,-42.7458 257.1763,-30.3513"/>
<polygon fill="#000000" stroke="#000000" points="258.6833,-33.5305 266.9381,-26.889 256.3433,-26.9331 258.6833,-33.5305"/>
</g>
<!-- register_defs -->
<g id="node3" class="node">
<title>register_defs</title>
<ellipse fill="#c1b2ff" stroke="#c1b2ff" cx="489" cy="-90" rx="55.7903" ry="18"/>
<text text-anchor="middle" x="489" y="-86.3" font-family="Times,serif" font-size="14.00" fill="#000000">register_defs</text>
</g>
<!-- register_defs&#45;&gt;Yam -->
<g id="edge3" class="edge">
<title>register_defs&#45;&gt;Yam</title>
<path fill="none" stroke="#000000" d="M451.9458,-76.4574C415.9334,-63.2954 361.676,-43.4653 326.5428,-30.6248"/>
<polygon fill="#000000" stroke="#000000" points="327.3274,-27.1852 316.7336,-27.0397 324.9245,-33.7598 327.3274,-27.1852"/>
</g>
<!-- register_store -->
<g id="node4" class="node">
<title>register_store</title>
<ellipse fill="#c1b2ff" stroke="#c1b2ff" cx="357" cy="-90" rx="58.4896" ry="18"/>
<text text-anchor="middle" x="357" y="-86.3" font-family="Times,serif" font-size="14.00" fill="#000000">register_store</text>
</g>
<!-- register_store&#45;&gt;Yam -->
<g id="edge4" class="edge">
<title>register_store&#45;&gt;Yam</title>
<path fill="none" stroke="#000000" d="M341.2653,-72.5708C332.8456,-63.2444 322.3587,-51.6281 313.227,-41.513"/>
<polygon fill="#000000" stroke="#000000" points="315.5585,-38.8725 306.2595,-33.7951 310.3626,-43.5632 315.5585,-38.8725"/>
</g>
</g>
</svg>
